<mxfile host="Electron" modified="2023-10-05T04:53:02.230Z" agent="Mozilla/5.0 (Windows NT 10.0; Win64; x64) AppleWebKit/537.36 (KHTML, like Gecko) draw.io/21.5.1 Chrome/112.0.5615.204 Electron/24.6.0 Safari/537.36" etag="TJ8AWqJl_RpFg_2-xoNS" version="21.5.1" type="device">
  <diagram name="Page-1" id="F6JIGa6ZshwI1zXd4D_A">
    <mxGraphModel dx="778" dy="831" grid="1" gridSize="10" guides="1" tooltips="1" connect="1" arrows="1" fold="1" page="1" pageScale="1" pageWidth="827" pageHeight="1169" math="0" shadow="0">
      <root>
        <mxCell id="0" />
        <mxCell id="1" parent="0" />
        <mxCell id="8inNs6QnbdB-DSMl5Y5s-17" style="edgeStyle=orthogonalEdgeStyle;rounded=0;orthogonalLoop=1;jettySize=auto;html=1;entryX=0;entryY=0.5;entryDx=0;entryDy=0;entryPerimeter=0;" edge="1" parent="1" source="8inNs6QnbdB-DSMl5Y5s-1" target="8inNs6QnbdB-DSMl5Y5s-4">
          <mxGeometry relative="1" as="geometry">
            <Array as="points">
              <mxPoint x="470" y="331" />
              <mxPoint x="470" y="408" />
            </Array>
          </mxGeometry>
        </mxCell>
        <mxCell id="8inNs6QnbdB-DSMl5Y5s-1" value="AWS Lambda" style="sketch=0;points=[[0,0,0],[0.25,0,0],[0.5,0,0],[0.75,0,0],[1,0,0],[0,1,0],[0.25,1,0],[0.5,1,0],[0.75,1,0],[1,1,0],[0,0.25,0],[0,0.5,0],[0,0.75,0],[1,0.25,0],[1,0.5,0],[1,0.75,0]];outlineConnect=0;fontColor=#232F3E;gradientColor=#F78E04;gradientDirection=north;fillColor=#D05C17;strokeColor=#ffffff;dashed=0;verticalLabelPosition=bottom;verticalAlign=top;align=center;html=1;fontSize=12;fontStyle=0;aspect=fixed;shape=mxgraph.aws4.resourceIcon;resIcon=mxgraph.aws4.lambda;" vertex="1" parent="1">
          <mxGeometry x="280" y="292" width="78" height="78" as="geometry" />
        </mxCell>
        <mxCell id="8inNs6QnbdB-DSMl5Y5s-18" style="edgeStyle=orthogonalEdgeStyle;rounded=0;orthogonalLoop=1;jettySize=auto;html=1;entryX=0;entryY=0.5;entryDx=0;entryDy=0;entryPerimeter=0;" edge="1" parent="1" source="8inNs6QnbdB-DSMl5Y5s-2" target="8inNs6QnbdB-DSMl5Y5s-4">
          <mxGeometry relative="1" as="geometry">
            <Array as="points">
              <mxPoint x="470" y="487" />
              <mxPoint x="470" y="408" />
            </Array>
          </mxGeometry>
        </mxCell>
        <mxCell id="8inNs6QnbdB-DSMl5Y5s-2" value="User On-Demand" style="sketch=0;outlineConnect=0;fontColor=#232F3E;gradientColor=none;fillColor=#232F3D;strokeColor=none;dashed=0;verticalLabelPosition=bottom;verticalAlign=top;align=center;html=1;fontSize=12;fontStyle=0;aspect=fixed;pointerEvents=1;shape=mxgraph.aws4.user;" vertex="1" parent="1">
          <mxGeometry x="280" y="448" width="78" height="78" as="geometry" />
        </mxCell>
        <mxCell id="8inNs6QnbdB-DSMl5Y5s-3" value="AWS Cloud" style="points=[[0,0],[0.25,0],[0.5,0],[0.75,0],[1,0],[1,0.25],[1,0.5],[1,0.75],[1,1],[0.75,1],[0.5,1],[0.25,1],[0,1],[0,0.75],[0,0.5],[0,0.25]];outlineConnect=0;gradientColor=none;html=1;whiteSpace=wrap;fontSize=12;fontStyle=0;container=1;pointerEvents=0;collapsible=0;recursiveResize=0;shape=mxgraph.aws4.group;grIcon=mxgraph.aws4.group_aws_cloud_alt;strokeColor=#232F3E;fillColor=none;verticalAlign=top;align=left;spacingLeft=30;fontColor=#232F3E;dashed=0;" vertex="1" parent="1">
          <mxGeometry x="600" y="330" width="270" height="150" as="geometry" />
        </mxCell>
        <mxCell id="8inNs6QnbdB-DSMl5Y5s-5" value="S3 Bucket" style="sketch=0;points=[[0,0,0],[0.25,0,0],[0.5,0,0],[0.75,0,0],[1,0,0],[0,1,0],[0.25,1,0],[0.5,1,0],[0.75,1,0],[1,1,0],[0,0.25,0],[0,0.5,0],[0,0.75,0],[1,0.25,0],[1,0.5,0],[1,0.75,0]];outlineConnect=0;fontColor=#232F3E;gradientColor=#60A337;gradientDirection=north;fillColor=#277116;strokeColor=#ffffff;dashed=0;verticalLabelPosition=top;verticalAlign=bottom;align=center;html=1;fontSize=12;fontStyle=0;aspect=fixed;shape=mxgraph.aws4.resourceIcon;resIcon=mxgraph.aws4.s3;labelPosition=center;" vertex="1" parent="8inNs6QnbdB-DSMl5Y5s-3">
          <mxGeometry x="170" y="40" width="78" height="78" as="geometry" />
        </mxCell>
        <mxCell id="8inNs6QnbdB-DSMl5Y5s-4" value="Storage Gateway" style="sketch=0;points=[[0,0,0],[0.25,0,0],[0.5,0,0],[0.75,0,0],[1,0,0],[0,1,0],[0.25,1,0],[0.5,1,0],[0.75,1,0],[1,1,0],[0,0.25,0],[0,0.5,0],[0,0.75,0],[1,0.25,0],[1,0.5,0],[1,0.75,0]];outlineConnect=0;fontColor=#232F3E;gradientColor=#60A337;gradientDirection=north;fillColor=#277116;strokeColor=#ffffff;dashed=0;verticalLabelPosition=bottom;verticalAlign=top;align=center;html=1;fontSize=12;fontStyle=0;aspect=fixed;shape=mxgraph.aws4.resourceIcon;resIcon=mxgraph.aws4.storage_gateway;" vertex="1" parent="8inNs6QnbdB-DSMl5Y5s-3">
          <mxGeometry x="40" y="39" width="78" height="78" as="geometry" />
        </mxCell>
        <mxCell id="8inNs6QnbdB-DSMl5Y5s-6" value="On-Premise" style="sketch=0;outlineConnect=0;gradientColor=none;html=1;whiteSpace=wrap;fontSize=12;fontStyle=0;shape=mxgraph.aws4.group;grIcon=mxgraph.aws4.group_on_premise;strokeColor=#858B94;fillColor=none;verticalAlign=top;align=left;spacingLeft=30;fontColor=#858B94;dashed=0;" vertex="1" parent="1">
          <mxGeometry x="950" y="330" width="270" height="150" as="geometry" />
        </mxCell>
        <mxCell id="8inNs6QnbdB-DSMl5Y5s-10" value="sync" style="edgeStyle=orthogonalEdgeStyle;rounded=0;orthogonalLoop=1;jettySize=auto;html=1;" edge="1" parent="1" source="8inNs6QnbdB-DSMl5Y5s-7" target="8inNs6QnbdB-DSMl5Y5s-5">
          <mxGeometry relative="1" as="geometry" />
        </mxCell>
        <mxCell id="8inNs6QnbdB-DSMl5Y5s-7" value="File Gateway" style="sketch=0;outlineConnect=0;fontColor=#232F3E;gradientColor=none;fillColor=#3F8624;strokeColor=none;dashed=0;verticalLabelPosition=bottom;verticalAlign=top;align=center;html=1;fontSize=12;fontStyle=0;aspect=fixed;pointerEvents=1;shape=mxgraph.aws4.file_gateway;" vertex="1" parent="1">
          <mxGeometry x="970" y="369.5" width="69" height="78" as="geometry" />
        </mxCell>
        <mxCell id="8inNs6QnbdB-DSMl5Y5s-9" value="Access files" style="edgeStyle=orthogonalEdgeStyle;rounded=0;orthogonalLoop=1;jettySize=auto;html=1;" edge="1" parent="1" source="8inNs6QnbdB-DSMl5Y5s-8" target="8inNs6QnbdB-DSMl5Y5s-7">
          <mxGeometry relative="1" as="geometry" />
        </mxCell>
        <mxCell id="8inNs6QnbdB-DSMl5Y5s-8" value="Apps" style="sketch=0;outlineConnect=0;fontColor=#232F3E;gradientColor=none;fillColor=#232F3D;strokeColor=none;dashed=0;verticalLabelPosition=bottom;verticalAlign=top;align=center;html=1;fontSize=12;fontStyle=0;aspect=fixed;pointerEvents=1;shape=mxgraph.aws4.traditional_server;" vertex="1" parent="1">
          <mxGeometry x="1155" y="368.5" width="45" height="78" as="geometry" />
        </mxCell>
        <mxCell id="8inNs6QnbdB-DSMl5Y5s-13" value="&lt;b&gt;RefreshCache&lt;/b&gt; API" style="text;html=1;align=center;verticalAlign=middle;resizable=0;points=[];autosize=1;strokeColor=none;fillColor=none;" vertex="1" parent="1">
          <mxGeometry x="470" y="384" width="130" height="30" as="geometry" />
        </mxCell>
        <mxCell id="8inNs6QnbdB-DSMl5Y5s-15" style="edgeStyle=orthogonalEdgeStyle;rounded=0;orthogonalLoop=1;jettySize=auto;html=1;" edge="1" parent="1" source="8inNs6QnbdB-DSMl5Y5s-14" target="8inNs6QnbdB-DSMl5Y5s-5">
          <mxGeometry relative="1" as="geometry" />
        </mxCell>
        <mxCell id="8inNs6QnbdB-DSMl5Y5s-14" value="User" style="sketch=0;outlineConnect=0;fontColor=#232F3E;gradientColor=none;fillColor=#232F3D;strokeColor=none;dashed=0;verticalLabelPosition=bottom;verticalAlign=top;align=center;html=1;fontSize=12;fontStyle=0;aspect=fixed;pointerEvents=1;shape=mxgraph.aws4.user;" vertex="1" parent="1">
          <mxGeometry x="970" y="570" width="78" height="78" as="geometry" />
        </mxCell>
        <mxCell id="8inNs6QnbdB-DSMl5Y5s-16" value="Upload" style="sketch=0;outlineConnect=0;fontColor=#232F3E;gradientColor=none;fillColor=#232F3D;strokeColor=none;dashed=0;verticalLabelPosition=bottom;verticalAlign=top;align=center;html=1;fontSize=12;fontStyle=0;aspect=fixed;pointerEvents=1;shape=mxgraph.aws4.document;" vertex="1" parent="1">
          <mxGeometry x="880" y="532" width="38.73" height="53" as="geometry" />
        </mxCell>
      </root>
    </mxGraphModel>
  </diagram>
</mxfile>
